name D:\school\WTK\thesis\model\3dpredictsim\Results\Batchsim_tmt_linear_v2\Pog_s1_tmt_aCst_d00_k800_ig24.mot
datacolumns 128
datarows 4
range 1.59873105 1.63070567
endheader
time	pelvis_tilt	pelvis_list	pelvis_rotation	pelvis_tx	pelvis_ty	pelvis_tz	hip_flexion_l	hip_adduction_l	hip_rotation_l	hip_flexion_r	hip_adduction_r	hip_rotation_r	knee_angle_l	knee_angle_r	ankle_angle_l	ankle_angle_r	subtalar_angle_l	subtalar_angle_r	tmt_angle_l	tmt_angle_r	mtp_angle_l	mtp_angle_r	lumbar_extension	lumbar_bending	lumbar_rotation	arm_flex_l	arm_add_l	arm_rot_l	arm_flex_r	arm_add_r	arm_rot_r	elbow_flex_l	elbow_flex_r	pro_sup_l	pro_sup_r	glut_med1_l/activation	glut_med2_l/activation	glut_med3_l/activation	glut_min1_l/activation	glut_min2_l/activation	glut_min3_l/activation	semimem_l/activation	semiten_l/activation	bifemlh_l/activation	bifemsh_l/activation	sar_l/activation	add_long_l/activation	add_brev_l/activation	add_mag1_l/activation	add_mag2_l/activation	add_mag3_l/activation	tfl_l/activation	pect_l/activation	grac_l/activation	glut_max1_l/activation	glut_max2_l/activation	glut_max3_l/activation	iliacus_l/activation	psoas_l/activation	quad_fem_l/activation	gem_l/activation	peri_l/activation	rect_fem_l/activation	vas_med_l/activation	vas_int_l/activation	vas_lat_l/activation	med_gas_l/activation	lat_gas_l/activation	soleus_l/activation	tib_post_l/activation	flex_dig_l/activation	flex_hal_l/activation	tib_ant_l/activation	per_brev_l/activation	per_long_l/activation	per_tert_l/activation	ext_dig_l/activation	ext_hal_l/activation	ercspn_l/activation	intobl_l/activation	extobl_l/activation	glut_med1_r/activation	glut_med2_r/activation	glut_med3_r/activation	glut_min1_r/activation	glut_min2_r/activation	glut_min3_r/activation	semimem_r/activation	semiten_r/activation	bifemlh_r/activation	bifemsh_r/activation	sar_r/activation	add_long_r/activation	add_brev_r/activation	add_mag1_r/activation	add_mag2_r/activation	add_mag3_r/activation	tfl_r/activation	pect_r/activation	grac_r/activation	glut_max1_r/activation	glut_max2_r/activation	glut_max3_r/activation	iliacus_r/activation	psoas_r/activation	quad_fem_r/activation	gem_r/activation	peri_r/activation	rect_fem_r/activation	vas_med_r/activation	vas_int_r/activation	vas_lat_r/activation	med_gas_r/activation	lat_gas_r/activation	soleus_r/activation	tib_post_r/activation	flex_dig_r/activation	flex_hal_r/activation	tib_ant_r/activation	per_brev_r/activation	per_long_r/activation	per_tert_r/activation	ext_dig_r/activation	ext_hal_r/activation	ercspn_r/activation	intobl_r/activation	extobl_r/activation	
          1.59873105	         -2.83381565	         -1.05288548	         -4.69908141	          1.99841381	          0.87158122	          0.00191370	         27.10373614	         -0.45518993	         -1.87756395	        -17.48420386	          1.34252193	          6.19383731	         -8.95607666	         -6.67262571	          5.92846025	         -8.34060667	          4.34833071	          9.26013004	          0.04364828	          1.30352769	         -0.09745230	         26.41450541	          0.50925220	          3.08427083	          1.62917698	         -9.47821672	        -13.46209347	         11.51310486	          3.01262382	        -13.47415369	         10.72528525	         17.96451872	         27.27164221	         86.51662706	         86.51662706	          0.12024433	          0.05000192	          0.09912446	          0.05000076	          0.05000105	          0.05000601	          0.05888161	          0.05888150	          0.05888171	          0.05000180	          0.05000742	          0.05888223	          0.06447219	          0.14354628	          0.14401488	          0.12578394	          0.05000654	          0.05018578	          0.05650675	          0.06931935	          0.08768990	          0.12643221	          0.05000104	          0.05000092	          0.15246965	          0.05000610	          0.05943384	          0.05000813	          0.11074959	          0.13638679	          0.08305281	          0.05888177	          0.05888163	          0.05888183	          0.05000050	          0.05001063	          0.05887453	          0.48516676	          0.27859689	          0.16617371	          0.24794613	          0.51280128	          0.27694067	          0.05000100	          0.13336390	          0.13336434	          0.28560870	          0.08845243	          0.08005019	          0.26391016	          0.15785606	          0.08912243	          0.05000535	          0.05000055	          0.05000046	          0.05000059	          0.09417145	          0.08530222	          0.05000249	          0.05000271	          0.05000596	          0.05000253	          0.21998747	          0.05451757	          0.05000334	          0.05001083	          0.05000692	          0.05000585	          0.30499284	          0.56717125	          0.05000180	          0.05000213	          0.06602631	          0.23216759	          0.09506638	          0.09189551	          0.07621034	          0.17623501	          0.25102263	          0.21385442	          0.19102740	          0.19740975	          0.25120146	          0.05000006	          0.09927849	          0.16166213	          0.05000045	          0.05000014	          0.05000042	          0.05000004	          0.05000012	          0.05000016	
          1.60938925	         -2.81505294	         -1.09305691	         -4.84681744	          2.01511694	          0.87032537	          0.00176254	         26.55036262	         -0.29299576	         -1.65222248	        -17.22094624	          1.21515232	          5.92763510	         -9.01826350	         -8.91935215	          5.33460832	         -9.02847459	          3.91625798	         10.30035286	          0.06000056	          1.17627311	         -0.08221542	         27.12748625	          0.72352050	          2.88850853	          1.68203889	        -10.62471212	        -13.46406365	         11.28915797	          2.75373307	        -13.50276693	         10.99494596	         18.02385781	         28.10459986	         86.51662706	         86.51662706	          0.10210667	          0.05272210	          0.13419939	          0.05887768	          0.05005254	          0.05000306	          0.05000007	          0.05000024	          0.05000013	          0.05000020	          0.05000201	          0.05000257	          0.05474780	          0.21853741	          0.20843336	          0.13692679	          0.05000121	          0.05000349	          0.05000067	          0.05888189	          0.07446509	          0.16003938	          0.05000039	          0.05000063	          0.25650092	          0.10626504	          0.13647406	          0.07234442	          0.28757194	          0.30634908	          0.23805584	          0.05000002	          0.05000005	          0.05000001	          0.05000029	          0.05000226	          0.05000071	          0.57627834	          0.30548285	          0.18051748	          0.46508877	          0.55652459	          0.29553207	          0.05000007	          0.11324707	          0.11324745	          0.24252715	          0.07511017	          0.06797544	          0.22410181	          0.13404492	          0.07567918	          0.05000400	          0.05000048	          0.05000058	          0.05000045	          0.07996710	          0.14964711	          0.17589791	          0.10241994	          0.05002479	          0.05000304	          0.18680435	          0.09022666	          0.05000761	          0.05000586	          0.05000333	          0.05000396	          0.25898727	          0.48161843	          0.05523791	          0.05888462	          0.05888193	          0.19714708	          0.13336174	          0.13650228	          0.11648471	          0.14965144	          0.21315801	          0.18159630	          0.16221273	          0.16763294	          0.21331025	          0.05000007	          0.08430345	          0.13728341	          0.05000036	          0.05000020	          0.05000039	          0.05000315	          0.07589564	          0.05750887	
          1.62004746	         -2.79018326	         -1.11816827	         -4.97304647	          2.03203866	          0.86890620	          0.00162386	         25.87699411	         -0.16004262	         -1.38446408	        -16.86351657	          1.08160949	          5.65244567	         -9.60381516	        -11.34866043	          4.69039204	         -9.66050464	          3.46290419	         11.30755013	         -0.04922270	          0.99428636	         -0.13705579	         27.36996544	          0.95129111	          2.66473274	          1.72447015	        -11.76964166	        -13.47663811	         11.12783801	          2.43931779	        -13.53689719	         11.23018834	         18.06700625	         28.92868349	         86.51662706	         86.51662706	          0.26162047	          0.19408851	          0.29268240	          0.05000093	          0.05000086	          0.22931571	          0.07970135	          0.05000102	          0.07947856	          0.05000038	          0.05000315	          0.06934180	          0.08623974	          0.18557331	          0.17699395	          0.14030518	          0.05000196	          0.06934081	          0.05001447	          0.05000074	          0.06323291	          0.13589931	          0.05242776	          0.05000302	          0.21781002	          0.09023623	          0.19208494	          0.06143188	          0.24419418	          0.26013894	          0.20214717	          0.05888184	          0.05888189	          0.05888181	          0.05281913	          0.05888200	          0.05888196	          0.48935198	          0.28164726	          0.15328890	          0.39493423	          0.58312439	          0.25095376	          0.05000005	          0.09616471	          0.09616502	          0.24811774	          0.06378048	          0.05772206	          0.19029836	          0.11382549	          0.06426371	          0.06320474	          0.05000083	          0.05000115	          0.05000022	          0.06790529	          0.15689008	          0.33087727	          0.08862032	          0.05888934	          0.10938622	          0.15862665	          0.07662000	          0.05000258	          0.05005214	          0.05589161	          0.05887890	          0.21992126	          0.42340516	          0.05004214	          0.05000347	          0.05000033	          0.16740909	          0.11324545	          0.11591224	          0.09891415	          0.12707777	          0.18100494	          0.15420401	          0.13774437	          0.14234725	          0.18113440	          0.05000111	          0.07293325	          0.14758337	          0.05000061	          0.15275559	          0.05000300	          0.05000063	          0.06444744	          0.06025597	
          1.63070567	         -2.76224388	         -1.12875338	         -5.07523012	          2.04896582	          0.86731162	          0.00148949	         25.08274937	         -0.03274575	         -1.09793509	        -16.40835062	          0.94721425	          5.37163293	        -10.20815434	        -13.94477415	          4.19715479	        -10.11638001	          2.97759238	         12.24381236	         -0.01802136	          0.75230537	         -0.14643417	         26.88138037	          1.17294842	          2.41590581	          1.75610554	        -12.86768077	        -13.50118709	         11.05647091	          2.10561410	        -13.57770073	         11.44813367	         18.06614661	         29.73034557	         86.51662706	         86.51662706	          0.32053439	          0.32166117	          0.39300606	          0.21552395	          0.15777302	          0.25114535	          0.06767948	          0.09046779	          0.06934819	          0.06953216	          0.05000357	          0.05888241	          0.07323133	          0.15758160	          0.18896362	          0.16966501	          0.05000057	          0.05888256	          0.08165689	          0.22009715	          0.17090991	          0.17852610	          0.05000060	          0.05000050	          0.18495535	          0.07662562	          0.21987656	          0.05216542	          0.20735966	          0.22089934	          0.17165507	          0.05000009	          0.05000018	          0.05000002	          0.05000002	          0.05000037	          0.05000027	          0.62701026	          0.29046791	          0.14787558	          0.64627331	          0.63768796	          0.42460582	          0.05000081	          0.08165908	          0.08165933	          0.21069143	          0.05415978	          0.05000006	          0.16159482	          0.09665601	          0.05457022	          0.08666564	          0.05000131	          0.05000098	          0.05000115	          0.05888125	          0.18242859	          0.31091931	          0.07525420	          0.05001102	          0.09288717	          0.13469938	          0.07578050	          0.05000255	          0.05000125	          0.05000083	          0.05000099	          0.18674804	          0.37455544	          0.05000012	          0.05000064	          0.05000050	          0.14215684	          0.09616341	          0.09842793	          0.08399385	          0.10790916	          0.15370190	          0.13094363	          0.11696700	          0.12087584	          0.15381216	          0.08672761	          0.09193468	          0.12532177	          0.10264805	          0.21707901	          0.09876219	          0.08753660	          0.05472609	          0.05116690	
